# xmcd
#
# Track frame offsets:
#	182
#	12882
#	22562
#	54345
#	68672
#	79267
#	93475
#	112477
#	126800
#	139005
#	153450
#	163592
#	180205
#	190285
# Disc length: 2763 seconds
# Revision: 5
# Processed by: cddbd v1.5.1PL2 Copyright (c) Steve Scherf et al.
#
# Submitted via: libkcddb 0.3
#
DISCID=ac0ac90e
DTITLE=Boxcar Willie and Friends - Greatest Hits
DYEAR=1900
DGENRE=Country
TTITLE0=Boxcar Willie - Hobo Heaven
TTITLE1=Bobby Bare - White Fright Liner Blues
TTITLE2=Boxcar Willie - Medley
TTITLE3=Freddy Fender - Mexican Rose
TTITLE4=Boxcar Willie - Wabash Cannonball
TTITLE5=Bobby Bare - Medley -  500 Miles away from Home
TTITLE6=Freddy Fender - Secret Love
TTITLE7=Freddy Fender - Jamalaya
TTITLE8=Bobby Bare - Tequilla Sheila
TTITLE9=Freddy Fender - The Rains Came
TTITLE10=Freddy Fender - Before The Next Teardrop Falls
TTITLE11=Bobby Bare - Marie Laveau
TTITLE12=Freddy Fender - Wasted Days and Wasted Nights
TTITLE13=Freddy Fender - Whiskey River
EXTD=ID3G:   2
EXTT0=
EXTT1=
EXTT2=
EXTT3=
EXTT4=
EXTT5=
EXTT6=
EXTT7=
EXTT8=
EXTT9=
EXTT10=
EXTT11=
EXTT12=
EXTT13=
PLAYORDER=
